<svg height="512pt" viewBox="0 0 512 512.01942" width="512pt" xmlns="http://www.w3.org/2000/svg"><path d="m245.34375 85.351562h-32v-74.664062c0-4.203125-2.453125-8-6.292969-9.730469-3.882812-1.726562-8.34375-1.0429685-11.457031 1.75l-192 170.667969c-2.261719 2.027344-3.5859375 4.925781-3.5859375 7.976562 0 3.050782 1.3242185 5.953126 3.5859375 7.980469l192 170.667969c3.113281 2.792969 7.617188 3.496094 11.457031 1.769531 3.839844-1.75 6.292969-5.546875 6.292969-9.75v-74.921875c1.042969.019532 2.070312.0625 3.113281.085938 2.496094.105468 5.015625.167968 7.550781.167968 89.132813 0 181.335938 47.875 181.335938 128 0 29.527344-20.757812 66.839844-40.042969 89.003907-3.371093 3.859375-3.5 9.578125-.339843 13.609375 2.089843 2.648437 5.226562 4.054687 8.382812 4.054687 1.683594 0 3.371094-.40625 4.925781-1.214843 78.742188-41.152344 133.738281-123.992188 133.738281-201.453126 0-121.40625-122.132812-224-266.664062-224zm0 0" fill="#f44336"/><path d="m373.34375 512.019531c-3.15625 0-6.292969-1.40625-8.382812-4.054687-3.160157-4.007813-3.050782-9.75.339843-13.609375 19.285157-22.164063 40.042969-59.476563 40.042969-89.003907 0-80.125-92.203125-128-181.335938-128-2.535156 0-5.054687-.0625-7.550781-.148437-1.042969-.019531-2.070312-.0625-3.113281-.085937v74.902343c0 4.203125-2.453125 8-6.292969 9.726563-3.839843 1.75-8.34375 1.023437-11.457031-1.769532l-192-170.667968c-2.261719-2.003906-3.5859375-4.90625-3.5859375-7.957032 0-3.050781 1.3242185-5.949218 3.5859375-7.976562l192-170.667969c3.113281-2.7929685 7.574219-3.5 11.457031-1.769531 3.839844 1.75 6.292969 5.546875 6.292969 9.75v74.664062h32c144.53125 0 266.664062 102.59375 266.664062 224 0 77.460938-54.996093 160.300782-133.738281 201.453126-1.554687.808593-3.242187 1.214843-4.925781 1.214843zm-163.628906-256.296875c2.453125 0 4.90625.0625 7.402344.148438 2.285156.085937 4.589843.148437 6.890624.148437 99.628907 0 202.667969 55.851563 202.667969 149.332031 0 18.539063-6.3125 38.957032-15.574219 57.878907 48.386719-40.640625 79.574219-98.859375 79.574219-153.878907 0-109.84375-112.363281-202.664062-245.332031-202.664062h-42.667969c-5.886719 0-10.667969-4.78125-10.667969-10.667969v-61.589843l-165.265624 146.921874 165.265624 146.925782v-61.589844c0-5.484375 4.160157-10.09375 9.644532-10.625 2.667968-.257812 5.355468-.339844 8.0625-.339844zm0 0"/></svg>